<?xml version="1.0" encoding="UTF-8" standalone="no"?>
<svg
   id="Layer_1"
   data-name="Layer 1"
   viewBox="0 0 116 35.64"
   fill="w"
   version="1.1"
   sodipodi:docname="logo.svg"
   inkscape:version="1.2.1 (9c6d41e410, 2022-07-14)"
   xmlns:inkscape="http://www.inkscape.org/namespaces/inkscape"
   xmlns:sodipodi="http://sodipodi.sourceforge.net/DTD/sodipodi-0.dtd"
   xmlns="http://www.w3.org/2000/svg"
   xmlns:svg="http://www.w3.org/2000/svg"
   xmlns:rdf="http://www.w3.org/1999/02/22-rdf-syntax-ns#"
   xmlns:cc="http://creativecommons.org/ns#"
   xmlns:dc="http://purl.org/dc/elements/1.1/">
  <sodipodi:namedview
     id="namedview25"
     pagecolor="#ffffff"
     bordercolor="#000000"
     borderopacity="0.25"
     inkscape:showpageshadow="2"
     inkscape:pageopacity="0.0"
     inkscape:pagecheckerboard="0"
     inkscape:deskcolor="#d1d1d1"
     showgrid="false"
     inkscape:zoom="11.293103"
     inkscape:cx="58"
     inkscape:cy="17.798473"
     inkscape:window-width="1920"
     inkscape:window-height="1001"
     inkscape:window-x="-9"
     inkscape:window-y="-9"
     inkscape:window-maximized="1"
     inkscape:current-layer="Layer_1" />
  <defs
     id="defs4">
    <style
       id="style2">.cls-1{fill:#333;}.cls-2{fill:#ffd90c;}</style>
  </defs>
  <title
     id="title6">logo</title>
  <path
     class="cls-1"
     d="M44.11,27.33H29V1.89h15.1V7.4H35.88v4H43.5v5.52H35.88v4.8h8.23Z"
     transform="translate(0 -0.25)"
     id="path8" />
  <path
     class="cls-1"
     d="M55,27.33h-6.8V.25H55Z"
     transform="translate(0 -0.25)"
     id="path10" />
  <path
     class="cls-1"
     d="M57.3,7.61h7.17l3.34,11.31a10,10,0,0,1,.33,2.14h.14A12,12,0,0,1,68.7,19L72.13,7.61h6.94l-7.79,21a12.44,12.44,0,0,1-3.68,5.66,9.22,9.22,0,0,1-5.7,1.65,13.52,13.52,0,0,1-2.79-.3V30.25a9.6,9.6,0,0,0,2.11.21,3.44,3.44,0,0,0,1.58-.35,3.56,3.56,0,0,0,1.18-1,8.41,8.41,0,0,0,1.08-2.08Z"
     transform="translate(0 -0.25)"
     id="path12" />
  <path
     class="cls-1"
     d="M91.08,22.3a10.2,10.2,0,0,0,3.29-.68v5a13.19,13.19,0,0,1-2.62.84,14.65,14.65,0,0,1-2.92.26q-3.42,0-4.94-1.68t-1.51-5.16V12.71H80V9.94L83,7.8l1.76-4.14h4.46v4h4.83v5.1H89.24v7.67C89.24,21.66,89.85,22.3,91.08,22.3Z"
     transform="translate(0 -0.25)"
     id="path14" />
  <path
     class="cls-1"
     d="M107.33,27.68c-3.28,0-5.83-.88-7.64-2.62S97,20.83,97,17.6s.84-5.88,2.53-7.67,4.08-2.67,7.2-2.67a9.55,9.55,0,0,1,6.88,2.33Q116,11.92,116,16.28v3H103.84a3.36,3.36,0,0,0,1.21,2.59,4.68,4.68,0,0,0,3.1.94,14.74,14.74,0,0,0,3.3-.34,16.32,16.32,0,0,0,3.26-1.16v4.89a12,12,0,0,1-3.3,1.13A22.81,22.81,0,0,1,107.33,27.68Zm-.4-15.79a2.81,2.81,0,0,0-2,.76A3.58,3.58,0,0,0,104,15h5.85a3.36,3.36,0,0,0-.81-2.28A2.69,2.69,0,0,0,106.93,11.89Z"
     transform="translate(0 -0.25)"
     id="path16" />
  <circle
     class="cls-2"
     cx="12.72"
     cy="14.35"
     r="12.72"
     id="circle18" />
  <polygon
     class="cls-1"
     points="19.39 1.63 4.65 16.36 11.68 16.36 19.39 1.63"
     id="polygon20" />
  <polygon
     class="cls-1"
     points="6.05 27.07 20.79 12.34 13.77 12.34 6.05 27.07"
     id="polygon22" />
  <path
     style="fill:#ffffff;fill-opacity:0.763285;stroke-width:0.0885496"
     d="M 29.044275,14.389313 V 1.7267176 h 7.526717 7.526718 v 2.7007633 2.7007634 h -4.117557 -4.117558 v 2.0366412 2.0366415 h 3.807634 3.807634 v 2.700763 2.700763 h -3.807634 -3.807634 v 2.435115 2.435114 h 4.117558 4.117557 v 2.789313 2.789313 h -7.526718 -7.526717 z"
     id="path269" />
  <path
     style="fill:#ffd90c;fill-opacity:1;stroke-width:0.0885496"
     d="M 48.259542,13.548092 V 0.04427481 h 3.364885 3.364886 V 13.548092 27.051908 h -3.364886 -3.364885 z"
     id="path271" />
  <path
     style="fill:#ffd90c;fill-opacity:1;stroke-width:0.0885496"
     d="M 29.044275,14.389313 V 1.7267176 h 7.526717 7.526718 v 2.7007633 2.7007634 h -4.117557 -4.117558 v 2.0366412 2.0366415 h 3.807634 3.807634 v 2.700763 2.700763 h -3.807634 -3.807634 v 2.435115 2.435114 h 4.117558 4.117557 v 2.789313 2.789313 h -7.526718 -7.526717 z"
     id="path687" />
  <path
     style="fill:#ffd90c;fill-opacity:1;stroke-width:0.0885496"
     d="m 60.877863,35.588689 c -0.146107,-0.02096 -0.59439,-0.0816 -0.996184,-0.134757 l -0.730534,-0.09665 v -2.65767 -2.65767 l 0.199237,0.05871 c 0.10958,0.03229 0.678472,0.0822 1.264204,0.110906 0.858152,0.04206 1.167685,0.02266 1.593893,-0.09986 0.704884,-0.202637 1.313835,-0.603314 1.74761,-1.149889 0.351979,-0.443507 1.12788,-1.920359 1.12788,-2.146806 0,-0.06431 -1.71795,-4.410565 -3.817668,-9.658336 -2.099718,-5.247771 -3.83734,-9.591211 -3.861382,-9.6520888 -0.03453,-0.087431 0.698929,-0.1106871 3.490905,-0.1106871 h 3.534618 l 1.626889,5.5122139 c 1.753104,5.939859 1.901741,6.488603 1.99603,7.369066 0.0849,0.792812 0.24178,0.743923 0.377339,-0.117593 0.08756,-0.556488 1.503516,-5.395708 3.520894,-12.0331525 l 0.222038,-0.7305344 h 3.415787 c 2.696113,0 3.406894,0.023321 3.373571,0.1106871 -0.02322,0.06088 -1.841122,4.9720628 -4.039786,10.9137428 C 72.72454,24.36 70.742999,29.599924 70.51978,30.062595 c -0.852954,1.767943 -2.330506,3.569032 -3.495879,4.261367 -1.454456,0.864077 -2.759135,1.224767 -4.59642,1.27072 -0.706183,0.01766 -1.403512,0.01497 -1.549618,-0.006 z"
     id="path689" />
  <path
     style="fill:#ffd90c;fill-opacity:1;stroke-width:0.0885496"
     d="m 87,27.281672 c -2.402974,-0.466455 -3.685781,-1.669439 -4.307593,-4.039551 -0.190161,-0.724821 -0.19804,-0.922574 -0.23011,-5.775709 l -0.03321,-5.025191 H 81.238973 80.048855 V 11.08331 9.7253985 l 1.460518,-1.040493 c 0.803285,-0.5722711 1.48983,-1.0868981 1.525656,-1.1436152 0.03583,-0.056717 0.448098,-0.9996872 0.916161,-2.0954888 l 0.851023,-1.9923664 2.183626,-0.023684 2.183627,-0.023684 v 2.0381881 2.0381881 h 2.435114 2.435115 v 2.4793894 2.4793893 h -2.43985 -2.43985 l 0.02687,4.228245 0.02687,4.228244 0.20523,0.354198 c 0.428788,0.74003 1.083142,0.94193 2.485536,0.766911 0.770431,-0.09615 1.762527,-0.319313 2.247294,-0.505509 0.147509,-0.05666 0.155044,0.0799 0.132825,2.407206 l -0.02356,2.46727 -0.974046,0.3265 c -0.535725,0.179575 -1.272901,0.391131 -1.638168,0.470126 C 90.726328,27.383924 87.83805,27.44435 87,27.281672 Z"
     id="path691" />
  <path
     style="fill:#ffd90c;fill-opacity:1;stroke-width:0.0885496"
     d="m 105.77252,27.308651 c -2.48593,-0.25933 -4.41175,-1.062371 -5.907932,-2.463527 -1.592874,-1.49171 -2.431764,-3.291003 -2.731001,-5.857589 -0.220238,-1.889006 0.041,-4.580512 0.595317,-6.133405 1.084657,-3.0386268 3.203486,-4.8753727 6.412306,-5.5586209 0.7816,-0.1664238 1.20764,-0.197088 2.78245,-0.2002634 1.74291,-0.00351 1.91385,0.011006 2.72533,0.2315124 1.59531,0.4335003 3.22281,1.3401763 4.16605,2.3208935 0.94228,0.9797204 1.66857,2.5431484 1.95593,4.2103634 0.09,0.521913 0.16631,1.656299 0.20114,2.98855 l 0.0561,2.147328 h -6.13235 -6.13236 l 0.0597,0.464886 c 0.077,0.599703 0.47055,1.453659 0.87756,1.904168 0.66563,0.736776 2.06328,1.256726 3.38678,1.259943 0.80925,0.002 2.28971,-0.143821 3.08838,-0.304127 0.79583,-0.159735 2.23124,-0.617683 2.94238,-0.938726 l 0.55344,-0.249846 v 2.391048 2.391048 l -0.65081,0.300691 c -1.97356,0.911843 -5.50891,1.381457 -8.24843,1.095673 z m 4.09485,-12.998305 c -0.098,-1.080922 -0.78614,-2.091016 -1.70401,-2.501312 -0.35484,-0.158618 -0.59731,-0.196678 -1.2212,-0.191697 -0.68734,0.0055 -0.84482,0.03888 -1.34539,0.285317 -0.57215,0.281666 -0.93449,0.645253 -1.24271,1.246964 -0.1934,0.377567 -0.39433,1.108135 -0.39576,1.438932 l -10e-4,0.243511 h 2.97871 2.97871 z"
     id="path693" />
  <metadata
     id="metadata695">
    <rdf:RDF>
      <cc:Work
         rdf:about="">
        <dc:title>logo</dc:title>
      </cc:Work>
    </rdf:RDF>
  </metadata>
</svg>
